<svg width="136" height="94" viewBox="0 0 136 94" fill="none" xmlns="http://www.w3.org/2000/svg">
<path d="M68.4481 21.4458L59.3967 27.2945L68.4481 33.1432L59.3967 38.9919L50.3452 33.0945L59.3967 27.2458L50.3452 21.4458L59.3967 15.5971L68.4481 21.4458ZM59.3485 40.844L68.4 34.9953L77.4514 40.844L68.4 46.6927L59.3485 40.844ZM68.4481 33.0945L77.4996 27.2458L68.4481 21.4458L77.4514 15.5971L86.5029 21.4458L77.4514 27.2945L86.5029 33.1432L77.4514 38.9919L68.4481 33.0945Z" fill="#4F5665"/>
<path d="M17.0981 55.8115H23.7147C27.937 55.8115 31.4194 58.2492 31.4194 63.821V64.9963C31.4194 70.6116 28.1547 73.1364 23.8452 73.1364H17.0981V55.8115ZM20.7982 58.9457V69.9587H23.6276C26.0217 69.9587 27.6323 68.3916 27.6323 64.9092V63.9951C27.6323 60.5127 25.9347 58.9457 23.497 58.9457H20.7982ZM33.3783 59.1198H36.3383L36.8171 62.3845C37.383 60.1645 38.8195 58.9892 41.4312 58.9892H42.3454V62.7328H40.8218C37.8183 62.7328 37.0783 63.7775 37.0783 66.7375V73.1799H33.4218V59.1198H33.3783ZM43.0854 66.4328V66.041C43.0854 61.3398 46.0889 58.7716 50.1807 58.7716C54.3596 58.7716 57.2761 61.3398 57.2761 66.041V66.4328C57.2761 71.0469 54.4466 73.5281 50.1807 73.5281C45.6536 73.4846 43.0854 71.0469 43.0854 66.4328ZM53.5325 66.3893V66.041C53.5325 63.4292 52.2266 61.8622 50.1372 61.8622C48.0913 61.8622 46.7419 63.2986 46.7419 66.041V66.3893C46.7419 68.914 48.0478 70.3505 50.1372 70.3505C52.2266 70.3069 53.5325 68.914 53.5325 66.3893ZM59.1914 59.1198H62.2385L62.5867 61.7751C63.3267 59.9904 64.8938 58.7716 67.2008 58.7716C70.7703 58.7716 73.1209 61.3398 73.1209 66.0845V66.4763C73.1209 71.0905 70.5091 73.5281 67.2008 73.5281C64.9808 73.5281 63.4573 72.5269 62.7173 70.9163V78.0117H59.1478L59.1914 59.1198ZM69.4209 66.3893V66.0845C69.4209 63.2986 67.9844 61.9057 66.0691 61.9057C64.0232 61.9057 62.6737 63.4728 62.6737 66.0845V66.3457C62.6737 68.8269 63.9796 70.394 66.0255 70.394C68.115 70.3505 69.4209 69.001 69.4209 66.3893ZM78.5186 70.5681L78.2139 73.1364H75.0797V54.4186H78.6492V61.601C79.4327 59.7727 80.9998 58.7716 83.2198 58.7716C86.5716 58.8151 89.0528 61.1222 89.0528 65.7798V66.2151C89.0528 70.8728 86.7021 73.5281 83.1327 73.5281C80.7821 73.4846 79.2586 72.3964 78.5186 70.5681ZM85.3092 66.2151V65.8669C85.3092 63.2986 83.9163 61.8622 81.9574 61.8622C79.955 61.8622 78.5621 63.4728 78.5621 65.9104V66.2151C78.5621 68.8269 79.9115 70.3505 81.9139 70.3505C84.0468 70.3505 85.3092 69.001 85.3092 66.2151ZM90.6198 66.4328V66.041C90.6198 61.3398 93.6234 58.7716 97.7152 58.7716C101.894 58.7716 104.811 61.3398 104.811 66.041V66.4328C104.811 71.0469 101.938 73.5281 97.7152 73.5281C93.1881 73.4846 90.6198 71.0469 90.6198 66.4328ZM101.11 66.3893V66.041C101.11 63.4292 99.8046 61.8622 97.7152 61.8622C95.6693 61.8622 94.3199 63.2986 94.3199 66.041V66.3893C94.3199 68.914 95.6257 70.3505 97.7152 70.3505C99.8046 70.3069 101.11 68.914 101.11 66.3893ZM109.599 65.8669L104.68 59.1198H108.902L111.732 63.3422L114.605 59.1198H118.784L113.778 65.8234L119.045 73.1364H114.909L111.688 68.4787L108.554 73.1364H104.245L109.599 65.8669Z" fill="#4F5665"/>
</svg>
