<svg width="159" height="24" viewBox="0 0 159 24" fill="none" xmlns="http://www.w3.org/2000/svg">
<circle cx="12" cy="12" r="12" fill="#00A700"/>
<g clip-path="url(#clip0_27_94)">
<path fill-rule="evenodd" clip-rule="evenodd" d="M12.0001 18.6207C15.6566 18.6207 18.6208 15.6565 18.6208 12C18.6208 8.34345 15.6566 5.37927 12.0001 5.37927C8.34358 5.37927 5.37939 8.34345 5.37939 12C5.37939 15.6565 8.34358 18.6207 12.0001 18.6207ZM15.1286 10.5768C15.371 10.3344 15.371 9.94139 15.1286 9.699C14.8862 9.45661 14.4933 9.45661 14.2509 9.699L10.9656 12.9842L9.74932 11.768C9.50693 11.5256 9.11393 11.5256 8.87154 11.768C8.62914 12.0104 8.62914 12.4034 8.87154 12.6458L10.5267 14.3009C10.7691 14.5433 11.1621 14.5433 11.4045 14.3009L15.1286 10.5768Z" fill="white"/>
</g>
<path d="M41.994 5.418C44.238 5.418 45.96 5.97 47.16 7.074C48.36 8.166 48.96 9.69 48.96 11.646C48.96 13.602 48.372 15.15 47.196 16.29C46.032 17.43 44.25 18 41.85 18H37.548V5.418H41.994ZM42.138 15.516C43.422 15.516 44.406 15.192 45.09 14.544C45.786 13.896 46.134 12.954 46.134 11.718C46.134 10.482 45.786 9.534 45.09 8.874C44.406 8.202 43.35 7.866 41.922 7.866H40.356V15.516H42.138ZM59.2149 18H56.6769V16.83C55.9809 17.706 55.1169 18.144 54.0849 18.144C53.0649 18.144 52.2069 17.85 51.5109 17.262C50.8149 16.662 50.4669 15.87 50.4669 14.886C50.4669 13.89 50.8269 13.146 51.5469 12.654C52.2669 12.162 53.2509 11.916 54.4989 11.916H56.5149V11.862C56.5149 10.83 55.9689 10.314 54.8769 10.314C54.4089 10.314 53.9109 10.41 53.3829 10.602C52.8669 10.782 52.4289 11.01 52.0689 11.286L50.8629 9.54C52.1349 8.616 53.5869 8.154 55.2189 8.154C56.3949 8.154 57.3549 8.448 58.0989 9.036C58.8429 9.624 59.2149 10.554 59.2149 11.826V18ZM56.4969 14.31V13.842H54.8049C53.7249 13.842 53.1849 14.178 53.1849 14.85C53.1849 15.198 53.3109 15.468 53.5629 15.66C53.8269 15.84 54.1989 15.93 54.6789 15.93C55.1589 15.93 55.5789 15.786 55.9389 15.498C56.3109 15.198 56.4969 14.802 56.4969 14.31ZM64.793 10.26V14.598C64.793 14.97 64.889 15.264 65.081 15.48C65.273 15.684 65.501 15.786 65.765 15.786C66.269 15.786 66.695 15.558 67.043 15.102L68.051 16.992C67.211 17.76 66.323 18.144 65.387 18.144C64.463 18.144 63.677 17.838 63.029 17.226C62.393 16.614 62.075 15.78 62.075 14.724V10.26H60.941V8.316H62.075V5.418H64.793V8.316H67.133V10.26H64.793ZM77.7247 18H75.1867V16.83C74.4907 17.706 73.6267 18.144 72.5947 18.144C71.5747 18.144 70.7167 17.85 70.0207 17.262C69.3247 16.662 68.9767 15.87 68.9767 14.886C68.9767 13.89 69.3367 13.146 70.0567 12.654C70.7767 12.162 71.7607 11.916 73.0087 11.916H75.0247V11.862C75.0247 10.83 74.4787 10.314 73.3867 10.314C72.9187 10.314 72.4207 10.41 71.8927 10.602C71.3767 10.782 70.9387 11.01 70.5787 11.286L69.3727 9.54C70.6447 8.616 72.0967 8.154 73.7287 8.154C74.9047 8.154 75.8647 8.448 76.6087 9.036C77.3527 9.624 77.7247 10.554 77.7247 11.826V18ZM75.0067 14.31V13.842H73.3147C72.2347 13.842 71.6947 14.178 71.6947 14.85C71.6947 15.198 71.8207 15.468 72.0727 15.66C72.3367 15.84 72.7087 15.93 73.1887 15.93C73.6687 15.93 74.0887 15.786 74.4487 15.498C74.8207 15.198 75.0067 14.802 75.0067 14.31ZM89.2523 7.596C88.7843 7.596 88.4123 7.71 88.1363 7.938C87.8723 8.154 87.7403 8.448 87.7403 8.82C87.7403 9.18 87.9023 9.468 88.2263 9.684C88.5623 9.9 89.3243 10.158 90.5123 10.458C91.7123 10.746 92.6423 11.184 93.3023 11.772C93.9623 12.36 94.2923 13.218 94.2923 14.346C94.2923 15.474 93.8663 16.392 93.0143 17.1C92.1743 17.796 91.0643 18.144 89.6843 18.144C87.6923 18.144 85.8983 17.406 84.3023 15.93L85.9763 13.878C87.3323 15.066 88.5863 15.66 89.7383 15.66C90.2543 15.66 90.6563 15.552 90.9443 15.336C91.2443 15.108 91.3943 14.808 91.3943 14.436C91.3943 14.052 91.2383 13.752 90.9263 13.536C90.6143 13.308 89.9963 13.08 89.0723 12.852C87.6083 12.504 86.5343 12.054 85.8503 11.502C85.1783 10.938 84.8423 10.062 84.8423 8.874C84.8423 7.674 85.2683 6.75 86.1203 6.102C86.9843 5.454 88.0583 5.13 89.3423 5.13C90.1823 5.13 91.0223 5.274 91.8623 5.562C92.7023 5.85 93.4343 6.258 94.0583 6.786L92.6363 8.838C91.5443 8.01 90.4163 7.596 89.2523 7.596ZM104.799 16.596C103.707 17.628 102.423 18.144 100.947 18.144C99.4828 18.144 98.2708 17.694 97.3108 16.794C96.3508 15.882 95.8708 14.664 95.8708 13.14C95.8708 11.616 96.3568 10.404 97.3288 9.504C98.3128 8.604 99.4708 8.154 100.803 8.154C102.135 8.154 103.263 8.556 104.187 9.36C105.123 10.164 105.591 11.268 105.591 12.672V14.112H98.5348C98.6188 14.64 98.8948 15.072 99.3628 15.408C99.8308 15.744 100.359 15.912 100.947 15.912C101.895 15.912 102.675 15.594 103.287 14.958L104.799 16.596ZM102.855 12.186C102.795 11.61 102.579 11.166 102.207 10.854C101.835 10.542 101.379 10.386 100.839 10.386C100.311 10.386 99.8248 10.548 99.3808 10.872C98.9368 11.196 98.6788 11.634 98.6068 12.186H102.855ZM112.182 15.75C113.082 15.75 113.892 15.3 114.612 14.4L116.214 16.2C114.966 17.496 113.616 18.144 112.164 18.144C110.712 18.144 109.482 17.688 108.474 16.776C107.478 15.852 106.98 14.652 106.98 13.176C106.98 11.688 107.484 10.482 108.492 9.558C109.512 8.622 110.718 8.154 112.11 8.154C112.806 8.154 113.508 8.298 114.216 8.586C114.936 8.874 115.566 9.3 116.106 9.864L114.702 11.7C114.39 11.328 114.006 11.04 113.55 10.836C113.106 10.632 112.662 10.53 112.218 10.53C111.51 10.53 110.898 10.764 110.382 11.232C109.878 11.688 109.626 12.33 109.626 13.158C109.626 13.974 109.878 14.61 110.382 15.066C110.898 15.522 111.498 15.75 112.182 15.75ZM124.26 13.536V8.316H126.978V18H124.26V16.722C123.588 17.67 122.718 18.144 121.65 18.144C120.594 18.144 119.706 17.814 118.986 17.154C118.266 16.482 117.906 15.492 117.906 14.184V8.316H120.624V13.59C120.624 15.078 121.17 15.822 122.262 15.822C122.802 15.822 123.27 15.63 123.666 15.246C124.062 14.85 124.26 14.28 124.26 13.536ZM134.622 10.692C133.818 10.692 133.218 10.98 132.822 11.556C132.426 12.12 132.228 12.87 132.228 13.806V18H129.528V8.316H132.228V9.594C132.576 9.198 133.008 8.862 133.524 8.586C134.052 8.31 134.586 8.166 135.126 8.154L135.144 10.692H134.622ZM145.316 16.596C144.224 17.628 142.94 18.144 141.464 18.144C140 18.144 138.788 17.694 137.828 16.794C136.868 15.882 136.388 14.664 136.388 13.14C136.388 11.616 136.874 10.404 137.846 9.504C138.83 8.604 139.988 8.154 141.32 8.154C142.652 8.154 143.78 8.556 144.704 9.36C145.64 10.164 146.108 11.268 146.108 12.672V14.112H139.052C139.136 14.64 139.412 15.072 139.88 15.408C140.348 15.744 140.876 15.912 141.464 15.912C142.412 15.912 143.192 15.594 143.804 14.958L145.316 16.596ZM143.372 12.186C143.312 11.61 143.096 11.166 142.724 10.854C142.352 10.542 141.896 10.386 141.356 10.386C140.828 10.386 140.342 10.548 139.898 10.872C139.454 11.196 139.196 11.634 139.124 12.186H143.372ZM151.925 18.144C150.785 18.144 149.765 17.658 148.865 16.686C147.965 15.714 147.515 14.508 147.515 13.068C147.515 11.628 147.953 10.452 148.829 9.54C149.705 8.616 150.731 8.154 151.907 8.154C153.083 8.154 154.043 8.568 154.787 9.396V4.644H157.487V18H154.787V16.722C154.031 17.67 153.077 18.144 151.925 18.144ZM150.233 13.176C150.233 13.956 150.467 14.598 150.935 15.102C151.403 15.594 151.949 15.84 152.573 15.84C153.197 15.84 153.725 15.594 154.157 15.102C154.601 14.598 154.823 13.956 154.823 13.176C154.823 12.384 154.601 11.73 154.157 11.214C153.725 10.686 153.191 10.422 152.555 10.422C151.919 10.422 151.373 10.686 150.917 11.214C150.461 11.742 150.233 12.396 150.233 13.176Z" fill="#00A700"/>
<defs>
<clipPath id="clip0_27_94">
<rect width="13.2414" height="13.2414" fill="white" transform="translate(5.37939 5.37927)"/>
</clipPath>
</defs>
</svg>
