<svg width="135" height="94" viewBox="0 0 135 94" fill="none" xmlns="http://www.w3.org/2000/svg">
<path d="M118.267 64.9745V62.4936H115.186V58.6367L115.082 58.6686L112.188 59.5539L112.131 59.5713V62.4936H107.564V60.8658C107.564 60.1078 107.734 59.5276 108.068 59.1408C108.4 58.7585 108.874 58.5642 109.479 58.5642C109.914 58.5642 110.365 58.6667 110.818 58.8689L110.932 58.9195V56.3068L110.878 56.2872C110.455 56.1352 109.88 56.0586 109.167 56.0586C108.269 56.0586 107.452 56.2541 106.74 56.6417C106.028 57.0297 105.467 57.5837 105.075 58.2882C104.683 58.9919 104.485 59.8045 104.485 60.7037V62.4936H102.34V64.9745H104.485V75.4258H107.564V64.9745H112.131V71.6162C112.131 74.3515 113.422 75.7378 115.966 75.7378C116.384 75.7378 116.824 75.6886 117.274 75.5926C117.731 75.4942 118.043 75.3958 118.226 75.2907L118.267 75.2668V72.7629L118.141 72.8458C117.974 72.9574 117.766 73.0483 117.522 73.1159C117.277 73.1848 117.072 73.2194 116.914 73.2194C116.318 73.2194 115.877 73.0587 115.603 72.7418C115.326 72.422 115.186 71.8625 115.186 71.08V64.9745H118.267ZM95.4624 73.2196C94.3446 73.2196 93.4634 72.849 92.8423 72.1189C92.2175 71.3851 91.9009 70.339 91.9009 69.0098C91.9009 67.6386 92.2175 66.5653 92.8427 65.8185C93.4641 65.0767 94.3369 64.7002 95.4373 64.7002C96.5051 64.7002 97.3551 65.0598 97.9639 65.7696C98.5759 66.4829 98.8864 67.5477 98.8864 68.9349C98.8864 70.3393 98.5943 71.418 98.0185 72.1395C97.4467 72.8558 96.5868 73.2196 95.4624 73.2196ZM95.5995 62.182C93.467 62.182 91.7732 62.8068 90.5657 64.0393C89.3589 65.2718 88.7468 66.9774 88.7468 69.1093C88.7468 71.134 89.3442 72.7627 90.5223 73.9492C91.7005 75.1362 93.3039 75.7375 95.2876 75.7375C97.3548 75.7375 99.0148 75.104 100.222 73.8545C101.429 72.6062 102.04 70.9169 102.04 68.8348C102.04 66.7784 101.467 65.1376 100.334 63.9589C99.2016 62.7797 97.6082 62.182 95.5995 62.182ZM83.7816 62.182C82.331 62.182 81.1312 62.553 80.2146 63.2846C79.2924 64.0204 78.8247 64.9857 78.8247 66.1536C78.8247 66.7607 78.9257 67.3001 79.1244 67.7574C79.3243 68.2164 79.6337 68.6203 80.0447 68.9594C80.4527 69.2958 81.0821 69.6482 81.9165 70.0066C82.6178 70.2952 83.1409 70.5395 83.4732 70.7319C83.798 70.9204 84.0286 71.1101 84.1588 71.2946C84.2852 71.4753 84.3495 71.7224 84.3495 72.0278C84.3495 72.8965 83.6989 73.3192 82.36 73.3192C81.8635 73.3192 81.297 73.2156 80.6765 73.0111C80.0556 72.8069 79.4754 72.5134 78.9525 72.1369L78.8247 72.0453V75.0101L78.8716 75.0319C79.3074 75.233 79.8567 75.4026 80.5042 75.5362C81.1505 75.6697 81.7376 75.7378 82.2478 75.7378C83.8219 75.7378 85.0894 75.3649 86.0143 74.629C86.9451 73.8881 87.4169 72.9001 87.4169 71.6915C87.4169 70.8199 87.1629 70.0723 86.6623 69.4695C86.1653 68.8714 85.3025 68.3225 84.0989 67.8372C83.1401 67.4524 82.5258 67.1329 82.2725 66.8878C82.0283 66.6509 81.9043 66.3159 81.9043 65.8916C81.9043 65.5155 82.0573 65.2143 82.3716 64.9702C82.6884 64.7249 83.1292 64.6002 83.6822 64.6002C84.1953 64.6002 84.7203 64.6812 85.2423 64.84C85.7641 64.9988 86.2222 65.2115 86.6048 65.4718L86.7305 65.5578V62.7454L86.6823 62.7246C86.3293 62.5733 85.864 62.4438 85.2989 62.3387C84.736 62.2347 84.2255 62.182 83.7816 62.182ZM70.7964 73.2196C69.6789 73.2196 68.7974 72.849 68.1765 72.1189C67.5515 71.3851 67.2354 70.3393 67.2354 69.0098C67.2354 67.6386 67.5519 66.5653 68.1772 65.8185C68.7981 65.0767 69.6708 64.7002 70.7716 64.7002C71.8391 64.7002 72.6891 65.0598 73.298 65.7696C73.9101 66.4829 74.2205 67.5477 74.2205 68.9349C74.2205 70.3393 73.9283 71.418 73.3525 72.1395C72.7807 72.8558 71.9212 73.2196 70.7964 73.2196ZM70.9339 62.182C68.8008 62.182 67.107 62.8068 65.9 64.0393C64.6932 65.2718 64.0808 66.9774 64.0808 69.1093C64.0808 71.1349 64.6785 72.7627 65.8567 73.9492C67.0348 75.1362 68.6381 75.7375 70.6219 75.7375C72.6886 75.7375 74.3491 75.104 75.5563 73.8545C76.7629 72.6062 77.3748 70.9169 77.3748 68.8348C77.3748 66.7784 76.8008 65.1376 75.6684 63.9589C74.5352 62.7797 72.9422 62.182 70.9339 62.182ZM59.4061 64.7331V62.4936H56.3641V75.4255H59.4061V68.8104C59.4061 67.6854 59.6611 66.7614 60.1643 66.0634C60.6612 65.3738 61.3234 65.0243 62.1318 65.0243C62.4057 65.0243 62.7132 65.0695 63.0464 65.1588C63.3761 65.2477 63.6149 65.3441 63.7558 65.4456L63.8836 65.5382V62.4714L63.8343 62.4503C63.5509 62.3298 63.1503 62.2691 62.6431 62.2691C61.8788 62.2691 61.1946 62.5148 60.6087 62.9983C60.0944 63.4234 59.7225 64.0063 59.4384 64.7331H59.4061ZM50.9165 62.182C49.521 62.182 48.2762 62.4813 47.2172 63.0712C46.1562 63.6624 45.3358 64.5066 44.7775 65.58C44.2217 66.6509 43.9396 67.9017 43.9396 69.2965C43.9396 70.5183 44.2132 71.6397 44.7539 72.6278C45.295 73.6177 46.0609 74.3921 47.0303 74.9292C47.9983 75.4657 49.1171 75.7378 50.3558 75.7378C51.8014 75.7378 53.0357 75.4486 54.0254 74.8788L54.0653 74.8557V72.0689L53.9376 72.1622C53.4893 72.4886 52.9883 72.7493 52.4493 72.9371C51.9116 73.1247 51.4214 73.2196 50.9917 73.2196C49.798 73.2196 48.8399 72.846 48.1443 72.1098C47.4472 71.3724 47.0937 70.3372 47.0937 69.0343C47.0937 67.7233 47.4623 66.6614 48.1888 65.8778C48.9129 65.0966 49.8729 64.7003 51.0419 64.7003C52.0418 64.7003 53.0161 65.0389 53.9379 65.7076L54.0653 65.8002V62.8637L54.0242 62.8405C53.6773 62.6464 53.2043 62.4861 52.6168 62.3645C52.0321 62.2432 51.4601 62.182 50.9165 62.182ZM41.8445 62.4936H38.8024V75.4255H41.8445V62.4936ZM40.3545 56.9846C39.8539 56.9846 39.4172 57.155 39.0585 57.4927C38.6982 57.8315 38.5154 58.2579 38.5154 58.7611C38.5154 59.2564 38.696 59.675 39.0527 60.0048C39.4071 60.3335 39.8452 60.5001 40.3545 60.5001C40.8637 60.5001 41.3034 60.3335 41.6621 60.0053C42.0233 59.675 42.2063 59.2564 42.2063 58.7611C42.2063 58.2755 42.0282 57.8533 41.677 57.5063C41.3263 57.1601 40.8813 56.9846 40.3545 56.9846ZM32.7646 61.5395V75.4254H35.8691V57.3806H31.5724L26.111 70.7837L20.811 57.3806H16.3394V75.4254H19.2567V61.5382H19.357L24.9536 75.4254H27.1552L32.6645 61.5395H32.7646Z" fill="#4F5665"/>
<path d="M64.5471 31.2356H50.2368V16.9253H64.5471V31.2356Z" fill="#4F5665"/>
<path d="M80.3472 31.2356H66.0371V16.9253H80.3472V31.2356Z" fill="#4F5665"/>
<path d="M64.5467 47.0416H50.2368V32.7313H64.5467V47.0416Z" fill="#4F5665"/>
<path d="M80.3472 47.0416H66.0371V32.7313H80.3472V47.0416Z" fill="#4F5665"/>
</svg>
