<svg width="20" height="21" viewBox="0 0 20 21" fill="none" xmlns="http://www.w3.org/2000/svg">
<mask id="mask0_1_3690" style="mask-type:luminance" maskUnits="userSpaceOnUse" x="0" y="6" width="20" height="15">
<path fill-rule="evenodd" clip-rule="evenodd" d="M0 6.79395H19.9996V20.5379H0V6.79395Z" fill="white"/>
</mask>
<g mask="url(#mask0_1_3690)">
<path fill-rule="evenodd" clip-rule="evenodd" d="M15.565 20.5379H4.435C1.99 20.5379 0 18.5489 0 16.1029V11.2279C0 8.78295 1.99 6.79395 4.435 6.79395H5.368C5.782 6.79395 6.118 7.12995 6.118 7.54395C6.118 7.95795 5.782 8.29395 5.368 8.29395H4.435C2.816 8.29395 1.5 9.60995 1.5 11.2279V16.1029C1.5 17.7219 2.816 19.0379 4.435 19.0379H15.565C17.183 19.0379 18.5 17.7219 18.5 16.1029V11.2189C18.5 9.60595 17.188 8.29395 15.576 8.29395H14.633C14.219 8.29395 13.883 7.95795 13.883 7.54395C13.883 7.12995 14.219 6.79395 14.633 6.79395H15.576C18.015 6.79395 20 8.77895 20 11.2189V16.1029C20 18.5489 18.01 20.5379 15.565 20.5379Z" fill="black"/>
</g>
<mask id="mask1_1_3690" style="mask-type:luminance" maskUnits="userSpaceOnUse" x="9" y="0" width="2" height="14">
<path fill-rule="evenodd" clip-rule="evenodd" d="M9.24951 0H10.7495V13.5409H9.24951V0Z" fill="white"/>
</mask>
<g mask="url(#mask1_1_3690)">
<path fill-rule="evenodd" clip-rule="evenodd" d="M9.99951 13.541C9.58551 13.541 9.24951 13.205 9.24951 12.791V0.75C9.24951 0.336 9.58551 0 9.99951 0C10.4135 0 10.7495 0.336 10.7495 0.75V12.791C10.7495 13.205 10.4135 13.541 9.99951 13.541Z" fill="black"/>
</g>
<path fill-rule="evenodd" clip-rule="evenodd" d="M7.08471 4.42853C6.89371 4.42853 6.70171 4.35553 6.55571 4.20953C6.26271 3.91753 6.26071 3.44353 6.55371 3.14953L9.46871 0.221527C9.74971 -0.0614727 10.2497 -0.0614727 10.5307 0.221527L13.4467 3.14953C13.7387 3.44353 13.7377 3.91753 13.4447 4.20953C13.1507 4.50153 12.6767 4.50153 12.3847 4.20753L9.99971 1.81353L7.61571 4.20753C7.46971 4.35553 7.27671 4.42853 7.08471 4.42853Z" fill="black"/>
</svg>
