<svg width="136" height="94" viewBox="0 0 136 94" fill="none" xmlns="http://www.w3.org/2000/svg">
<path d="M30.9865 56.228C25.9204 56.228 21.8148 52.1202 21.8148 47.0532C21.8148 41.986 25.9204 37.8821 30.9865 37.8821C32.7721 37.8821 34.4392 38.3913 35.8475 39.2741L30.9865 47.0532L40.1379 41.7691C39.1436 40.185 37.7176 38.82 35.9932 37.7841C33.799 36.4705 30.7468 35.6575 27.3717 35.6575C22.5572 35.6575 18.3335 37.407 15.978 40.027C14.2341 41.9638 13.1958 44.4014 13.1958 47.0531C13.1958 49.7067 14.2341 52.1461 15.978 54.0842C18.3396 56.7075 22.5004 58.4468 27.2355 58.4468C31.9698 58.4468 36.1294 56.7061 38.4925 54.0842C38.6219 53.9398 38.7472 53.7941 38.8657 53.6429L38.5089 52.3054C36.8486 54.6753 34.0987 56.228 30.9865 56.228Z" fill="#4F5665"/>
<path d="M61.3264 57.895L57.4855 43.5665C56.8685 41.2511 54.7601 39.5493 52.2499 39.5493C51.5989 39.5493 50.9751 39.6656 50.3962 39.8761L42.1274 42.8829H50.6319L52.0851 48.3103C50.6755 47.097 48.8395 46.3588 46.8291 46.3588C42.837 46.3588 39.605 49.0339 39.605 52.3338C39.605 55.634 42.837 58.3131 46.8291 58.3131C49.703 58.3131 52.2445 56.9061 53.8122 54.7446L54.6553 57.895H61.3264ZM49.6104 55.6694C47.7689 55.6694 46.2761 54.178 46.2761 52.3338C46.2761 50.4924 47.7689 48.9996 49.6104 48.9996C51.4518 48.9996 52.9459 50.4924 52.9459 52.3338C52.9459 54.178 51.4518 55.6694 49.6104 55.6694Z" fill="#4F5665"/>
<path d="M76.9871 39.5518C76.4832 39.5518 76.0065 39.6632 75.5815 39.8627L70.2724 42.337C70.0095 40.7565 68.6366 39.5518 66.9804 39.5518C66.4792 39.5518 66.0011 39.6632 65.5707 39.8627L59.0889 42.883H63.6462V57.8952H70.3173V44.5531C70.3173 43.6325 71.0624 42.8831 71.9858 42.8831C72.9038 42.8831 73.6543 43.6325 73.6543 44.5531V57.8952H80.3227V42.883C80.3227 41.042 78.8286 39.5519 76.9871 39.5519" fill="#4F5665"/>
<path d="M118.823 39.5518C118.318 39.5518 117.838 39.6632 117.406 39.8627L112.103 42.337C111.841 40.7565 110.468 39.5518 108.812 39.5518C108.311 39.5518 107.833 39.6632 107.401 39.8627L100.922 42.883H105.478V57.8952H112.148V44.5531C112.148 43.6325 112.894 42.8831 113.817 42.8831C114.738 42.8831 115.483 43.6325 115.483 44.5531V57.8952H122.157V42.883C122.157 41.042 120.662 39.5519 118.823 39.5519" fill="#4F5665"/>
<path d="M102.001 48.9995C102.001 54.2176 97.7715 58.4466 92.5549 58.4466C87.3343 58.4466 83.1025 54.2176 83.1025 48.9995C83.1025 43.7829 87.3343 39.5518 92.5549 39.5518C97.7715 39.5518 102.001 43.783 102.001 48.9995ZM92.9458 42.4191C92.6489 41.3074 91.5062 40.6475 90.3948 40.9463C89.2847 41.244 88.6214 42.3874 88.9197 43.4989L92.16 55.5796C92.4596 56.6924 93.5996 57.3516 94.711 57.0574C95.8224 56.7564 96.483 55.6136 96.1847 54.5022L92.9458 42.4191Z" fill="#4F5665"/>
</svg>
