<svg width="165" height="20" viewBox="0 0 165 20" fill="none" xmlns="http://www.w3.org/2000/svg">
<path d="M12.8059 8.1314L8.83873 7.55484L7.06529 3.95953C7.01685 3.86109 6.93716 3.7814 6.83873 3.73296C6.59185 3.61109 6.29185 3.71265 6.16841 3.95953L4.39498 7.55484L0.427788 8.1314C0.318413 8.14703 0.218413 8.19859 0.141851 8.27671C0.0492908 8.37185 -0.00171392 8.49984 4.3978e-05 8.63256C0.00180188 8.76528 0.0561785 8.89188 0.151226 8.98453L3.02154 11.783L2.34341 15.7345C2.32751 15.8264 2.33768 15.921 2.37278 16.0074C2.40787 16.0939 2.46648 16.1687 2.54196 16.2236C2.61744 16.2784 2.70677 16.3109 2.79982 16.3176C2.89287 16.3242 2.98592 16.3046 3.06841 16.2611L6.61685 14.3955L10.1653 16.2611C10.2622 16.3127 10.3747 16.3298 10.4825 16.3111C10.7544 16.2642 10.9372 16.0064 10.8903 15.7345L10.2122 11.783L13.0825 8.98453C13.1606 8.90797 13.2122 8.80796 13.2278 8.69859C13.27 8.42515 13.0794 8.17203 12.8059 8.1314Z" fill="#FF8906"/>
<path d="M41.0393 8.1314L37.0721 7.55484L35.2987 3.95953C35.2502 3.86109 35.1706 3.7814 35.0721 3.73296C34.8252 3.61109 34.5252 3.71265 34.4018 3.95953L32.6284 7.55484L28.6612 8.1314C28.5518 8.14703 28.4518 8.19859 28.3752 8.27671C28.2827 8.37185 28.2317 8.49984 28.2334 8.63256C28.2352 8.76528 28.2896 8.89188 28.3846 8.98453L31.2549 11.783L30.5768 15.7345C30.5609 15.8264 30.5711 15.921 30.6062 16.0074C30.6413 16.0939 30.6999 16.1687 30.7754 16.2236C30.8508 16.2784 30.9402 16.3109 31.0332 16.3176C31.1263 16.3242 31.2193 16.3046 31.3018 16.2611L34.8502 14.3955L38.3987 16.2611C38.4956 16.3127 38.6081 16.3298 38.7159 16.3111C38.9878 16.2642 39.1706 16.0064 39.1237 15.7345L38.4456 11.783L41.3159 8.98453C41.394 8.90797 41.4456 8.80796 41.4612 8.69859C41.5034 8.42515 41.3127 8.17203 41.0393 8.1314Z" fill="#FF8906"/>
<path d="M69.2732 8.1314L65.306 7.55484L63.5326 3.95953C63.4841 3.86109 63.4044 3.7814 63.306 3.73296C63.0591 3.61109 62.7591 3.71265 62.6357 3.95953L60.8623 7.55484L56.8951 8.1314C56.7857 8.14703 56.6857 8.19859 56.6091 8.27671C56.5166 8.37185 56.4656 8.49984 56.4673 8.63256C56.4691 8.76528 56.5235 8.89188 56.6185 8.98453L59.4888 11.783L58.8107 15.7345C58.7948 15.8264 58.805 15.921 58.8401 16.0074C58.8752 16.0939 58.9338 16.1687 59.0092 16.2236C59.0847 16.2784 59.1741 16.3109 59.2671 16.3176C59.3602 16.3242 59.4532 16.3046 59.5357 16.2611L63.0841 14.3955L66.6326 16.2611C66.7294 16.3127 66.8419 16.3298 66.9498 16.3111C67.2216 16.2642 67.4044 16.0064 67.3576 15.7345L66.6794 11.783L69.5498 8.98453C69.6279 8.90797 69.6794 8.80796 69.6951 8.69859C69.7373 8.42515 69.5466 8.17203 69.2732 8.1314Z" fill="#FF8906"/>
<path d="M97.5066 8.1314L93.5394 7.55484L91.766 3.95953C91.7175 3.86109 91.6378 3.7814 91.5394 3.73296C91.2925 3.61109 90.9925 3.71265 90.8691 3.95953L89.0957 7.55484L85.1285 8.1314C85.0191 8.14703 84.9191 8.19859 84.8425 8.27671C84.75 8.37185 84.699 8.49984 84.7007 8.63256C84.7025 8.76528 84.7569 8.89188 84.8519 8.98453L87.7222 11.783L87.0441 15.7345C87.0282 15.8264 87.0384 15.921 87.0735 16.0074C87.1086 16.0939 87.1672 16.1687 87.2426 16.2236C87.3181 16.2784 87.4075 16.3109 87.5005 16.3176C87.5936 16.3242 87.6866 16.3046 87.7691 16.2611L91.3175 14.3955L94.866 16.2611C94.9628 16.3127 95.0753 16.3298 95.1832 16.3111C95.455 16.2642 95.6378 16.0064 95.591 15.7345L94.9128 11.783L97.7832 8.98453C97.8613 8.90797 97.9128 8.80796 97.9285 8.69859C97.9707 8.42515 97.78 8.17203 97.5066 8.1314Z" fill="#FF8906"/>
<path d="M125.74 8.1314L121.773 7.55484L120 3.95953C119.951 3.86109 119.872 3.7814 119.773 3.73296C119.526 3.61109 119.226 3.71265 119.103 3.95953L117.33 7.55484L113.362 8.1314C113.253 8.14703 113.153 8.19859 113.076 8.27671C112.984 8.37185 112.933 8.49984 112.935 8.63256C112.936 8.76528 112.991 8.89188 113.086 8.98453L115.956 11.783L115.278 15.7345C115.262 15.8264 115.272 15.921 115.307 16.0074C115.342 16.0939 115.401 16.1687 115.477 16.2236C115.552 16.2784 115.641 16.3109 115.734 16.3176C115.827 16.3242 115.92 16.3046 116.003 16.2611L119.551 14.3955L123.1 16.2611C123.197 16.3127 123.309 16.3298 123.417 16.3111C123.689 16.2642 123.872 16.0064 123.825 15.7345L123.147 11.783L126.017 8.98453C126.095 8.90797 126.147 8.80796 126.162 8.69859C126.205 8.42515 126.014 8.17203 125.74 8.1314Z" fill="#FF8906"/>
<path d="M145.536 16.096C144.736 16.096 143.973 15.968 143.248 15.712C142.523 15.4453 141.947 15.0933 141.52 14.656L142.08 13.744C142.432 14.1173 142.912 14.4267 143.52 14.672C144.139 14.9173 144.805 15.04 145.52 15.04C146.469 15.04 147.189 14.832 147.68 14.416C148.181 13.9893 148.432 13.4347 148.432 12.752C148.432 12.272 148.315 11.8613 148.08 11.52C147.856 11.168 147.472 10.896 146.928 10.704C146.384 10.512 145.637 10.416 144.688 10.416H142.304L142.88 4.8H149.008V5.824H143.344L143.936 5.264L143.44 9.968L142.848 9.392H144.944C146.075 9.392 146.981 9.53067 147.664 9.808C148.347 10.0853 148.837 10.4747 149.136 10.976C149.445 11.4667 149.6 12.0427 149.6 12.704C149.6 13.3333 149.451 13.9093 149.152 14.432C148.853 14.944 148.405 15.3493 147.808 15.648C147.211 15.9467 146.453 16.096 145.536 16.096ZM151.926 16.08C151.692 16.08 151.489 15.9947 151.318 15.824C151.158 15.6533 151.078 15.4453 151.078 15.2C151.078 14.944 151.158 14.736 151.318 14.576C151.489 14.416 151.692 14.336 151.926 14.336C152.161 14.336 152.358 14.416 152.518 14.576C152.689 14.736 152.774 14.944 152.774 15.2C152.774 15.4453 152.689 15.6533 152.518 15.824C152.358 15.9947 152.161 16.08 151.926 16.08ZM158.745 16.096C157.881 16.096 157.113 15.872 156.441 15.424C155.769 14.9653 155.241 14.3147 154.857 13.472C154.473 12.6187 154.281 11.5947 154.281 10.4C154.281 9.20533 154.473 8.18667 154.857 7.344C155.241 6.49067 155.769 5.84 156.441 5.392C157.113 4.93333 157.881 4.704 158.745 4.704C159.609 4.704 160.377 4.93333 161.049 5.392C161.721 5.84 162.249 6.49067 162.633 7.344C163.028 8.18667 163.225 9.20533 163.225 10.4C163.225 11.5947 163.028 12.6187 162.633 13.472C162.249 14.3147 161.721 14.9653 161.049 15.424C160.377 15.872 159.609 16.096 158.745 16.096ZM158.745 15.04C159.407 15.04 159.983 14.864 160.473 14.512C160.964 14.1493 161.348 13.6267 161.625 12.944C161.903 12.2507 162.041 11.4027 162.041 10.4C162.041 9.39733 161.903 8.55467 161.625 7.872C161.348 7.17867 160.964 6.656 160.473 6.304C159.983 5.94133 159.407 5.76 158.745 5.76C158.105 5.76 157.535 5.94133 157.033 6.304C156.532 6.656 156.143 7.17867 155.865 7.872C155.588 8.55467 155.449 9.39733 155.449 10.4C155.449 11.4027 155.588 12.2507 155.865 12.944C156.143 13.6267 156.532 14.1493 157.033 14.512C157.535 14.864 158.105 15.04 158.745 15.04Z" fill="#0B132A"/>
</svg>
