<svg width="125" height="24" viewBox="0 0 125 24" fill="none" xmlns="http://www.w3.org/2000/svg">
<circle cx="12" cy="12" r="12" fill="#00A700"/>
<g clip-path="url(#clip0_27_87)">
<path fill-rule="evenodd" clip-rule="evenodd" d="M12.0001 18.6207C15.6566 18.6207 18.6208 15.6565 18.6208 12C18.6208 8.34345 15.6566 5.37927 12.0001 5.37927C8.34358 5.37927 5.37939 8.34345 5.37939 12C5.37939 15.6565 8.34358 18.6207 12.0001 18.6207ZM15.1286 10.5768C15.371 10.3344 15.371 9.94139 15.1286 9.699C14.8862 9.45661 14.4933 9.45661 14.2509 9.699L10.9656 12.9842L9.74932 11.768C9.50693 11.5256 9.11393 11.5256 8.87154 11.768C8.62914 12.0104 8.62914 12.4034 8.87154 12.6458L10.5267 14.3009C10.7691 14.5433 11.1621 14.5433 11.4045 14.3009L15.1286 10.5768Z" fill="white"/>
</g>
<path d="M41.598 7.596C41.13 7.596 40.758 7.71 40.482 7.938C40.218 8.154 40.086 8.448 40.086 8.82C40.086 9.18 40.248 9.468 40.572 9.684C40.908 9.9 41.67 10.158 42.858 10.458C44.058 10.746 44.988 11.184 45.648 11.772C46.308 12.36 46.638 13.218 46.638 14.346C46.638 15.474 46.212 16.392 45.36 17.1C44.52 17.796 43.41 18.144 42.03 18.144C40.038 18.144 38.244 17.406 36.648 15.93L38.322 13.878C39.678 15.066 40.932 15.66 42.084 15.66C42.6 15.66 43.002 15.552 43.29 15.336C43.59 15.108 43.74 14.808 43.74 14.436C43.74 14.052 43.584 13.752 43.272 13.536C42.96 13.308 42.342 13.08 41.418 12.852C39.954 12.504 38.88 12.054 38.196 11.502C37.524 10.938 37.188 10.062 37.188 8.874C37.188 7.674 37.614 6.75 38.466 6.102C39.33 5.454 40.404 5.13 41.688 5.13C42.528 5.13 43.368 5.274 44.208 5.562C45.048 5.85 45.78 6.258 46.404 6.786L44.982 8.838C43.89 8.01 42.762 7.596 41.598 7.596ZM57.6485 12.78V18H54.9305V12.708C54.9305 11.94 54.8105 11.376 54.5705 11.016C54.3425 10.656 53.9645 10.476 53.4365 10.476C52.9205 10.476 52.4585 10.674 52.0505 11.07C51.6545 11.454 51.4565 12.024 51.4565 12.78V18H48.7565V8.316H51.4565V9.414C52.2005 8.574 53.0525 8.154 54.0125 8.154C54.6245 8.154 55.1765 8.334 55.6685 8.694C56.1725 9.054 56.5505 9.492 56.8025 10.008C57.1745 9.42 57.6725 8.964 58.2965 8.64C58.9325 8.316 59.5685 8.154 60.2045 8.154C61.3445 8.154 62.2625 8.496 62.9585 9.18C63.6545 9.852 64.0025 10.83 64.0025 12.114V18H61.2845V12.708C61.2845 11.22 60.7385 10.476 59.6465 10.476C59.1065 10.476 58.6385 10.674 58.2425 11.07C57.8465 11.454 57.6485 12.024 57.6485 12.78ZM74.6837 18H72.1457V16.83C71.4497 17.706 70.5857 18.144 69.5537 18.144C68.5337 18.144 67.6757 17.85 66.9797 17.262C66.2837 16.662 65.9357 15.87 65.9357 14.886C65.9357 13.89 66.2957 13.146 67.0157 12.654C67.7357 12.162 68.7197 11.916 69.9677 11.916H71.9837V11.862C71.9837 10.83 71.4377 10.314 70.3457 10.314C69.8777 10.314 69.3797 10.41 68.8517 10.602C68.3357 10.782 67.8977 11.01 67.5377 11.286L66.3317 9.54C67.6037 8.616 69.0557 8.154 70.6877 8.154C71.8637 8.154 72.8237 8.448 73.5677 9.036C74.3117 9.624 74.6837 10.554 74.6837 11.826V18ZM71.9657 14.31V13.842H70.2737C69.1937 13.842 68.6537 14.178 68.6537 14.85C68.6537 15.198 68.7797 15.468 69.0317 15.66C69.2957 15.84 69.6677 15.93 70.1477 15.93C70.6277 15.93 71.0477 15.786 71.4077 15.498C71.7797 15.198 71.9657 14.802 71.9657 14.31ZM79.8452 18H77.1452V4.644H79.8452V18ZM85.101 18H82.401V4.644H85.101V18ZM101.313 5.418V7.884H95.481V10.602H101.025V13.068H95.481V18H92.673V5.418H101.313ZM111.812 16.596C110.72 17.628 109.436 18.144 107.96 18.144C106.496 18.144 105.284 17.694 104.324 16.794C103.364 15.882 102.884 14.664 102.884 13.14C102.884 11.616 103.37 10.404 104.342 9.504C105.326 8.604 106.484 8.154 107.816 8.154C109.148 8.154 110.276 8.556 111.2 9.36C112.136 10.164 112.604 11.268 112.604 12.672V14.112H105.548C105.632 14.64 105.908 15.072 106.376 15.408C106.844 15.744 107.372 15.912 107.96 15.912C108.908 15.912 109.688 15.594 110.3 14.958L111.812 16.596ZM109.868 12.186C109.808 11.61 109.592 11.166 109.22 10.854C108.848 10.542 108.392 10.386 107.852 10.386C107.324 10.386 106.838 10.548 106.394 10.872C105.95 11.196 105.692 11.634 105.62 12.186H109.868ZM122.939 16.596C121.847 17.628 120.563 18.144 119.087 18.144C117.623 18.144 116.411 17.694 115.451 16.794C114.491 15.882 114.011 14.664 114.011 13.14C114.011 11.616 114.497 10.404 115.469 9.504C116.453 8.604 117.611 8.154 118.943 8.154C120.275 8.154 121.403 8.556 122.327 9.36C123.263 10.164 123.731 11.268 123.731 12.672V14.112H116.675C116.759 14.64 117.035 15.072 117.503 15.408C117.971 15.744 118.499 15.912 119.087 15.912C120.035 15.912 120.815 15.594 121.427 14.958L122.939 16.596ZM120.995 12.186C120.935 11.61 120.719 11.166 120.347 10.854C119.975 10.542 119.519 10.386 118.979 10.386C118.451 10.386 117.965 10.548 117.521 10.872C117.077 11.196 116.819 11.634 116.747 12.186H120.995Z" fill="#00A700"/>
<defs>
<clipPath id="clip0_27_87">
<rect width="13.2414" height="13.2414" fill="white" transform="translate(5.37939 5.37927)"/>
</clipPath>
</defs>
</svg>
