<svg width="165" height="20" viewBox="0 0 165 20" fill="none" xmlns="http://www.w3.org/2000/svg">
<path d="M12.8059 8.13128L8.83873 7.55472L7.06529 3.95941C7.01685 3.86097 6.93716 3.78128 6.83873 3.73284C6.59185 3.61097 6.29185 3.71253 6.16841 3.95941L4.39498 7.55472L0.427788 8.13128C0.318413 8.14691 0.218413 8.19847 0.141851 8.27659C0.0492908 8.37173 -0.00171392 8.49972 4.3978e-05 8.63244C0.00180188 8.76516 0.0561785 8.89176 0.151226 8.98441L3.02154 11.7828L2.34341 15.7344C2.32751 15.8263 2.33768 15.9209 2.37278 16.0073C2.40787 16.0937 2.46648 16.1686 2.54196 16.2234C2.61744 16.2783 2.70677 16.3108 2.79982 16.3175C2.89287 16.3241 2.98592 16.3045 3.06841 16.261L6.61685 14.3953L10.1653 16.261C10.2622 16.3125 10.3747 16.3297 10.4825 16.311C10.7544 16.2641 10.9372 16.0063 10.8903 15.7344L10.2122 11.7828L13.0825 8.98441C13.1606 8.90784 13.2122 8.80784 13.2278 8.69847C13.27 8.42503 13.0794 8.17191 12.8059 8.13128Z" fill="#FF8906"/>
<path d="M41.0393 8.13128L37.0721 7.55472L35.2987 3.95941C35.2502 3.86097 35.1706 3.78128 35.0721 3.73284C34.8252 3.61097 34.5252 3.71253 34.4018 3.95941L32.6284 7.55472L28.6612 8.13128C28.5518 8.14691 28.4518 8.19847 28.3752 8.27659C28.2827 8.37173 28.2317 8.49972 28.2334 8.63244C28.2352 8.76516 28.2896 8.89176 28.3846 8.98441L31.2549 11.7828L30.5768 15.7344C30.5609 15.8263 30.5711 15.9209 30.6062 16.0073C30.6413 16.0937 30.6999 16.1686 30.7754 16.2234C30.8508 16.2783 30.9402 16.3108 31.0332 16.3175C31.1263 16.3241 31.2193 16.3045 31.3018 16.261L34.8502 14.3953L38.3987 16.261C38.4956 16.3125 38.6081 16.3297 38.7159 16.311C38.9878 16.2641 39.1706 16.0063 39.1237 15.7344L38.4456 11.7828L41.3159 8.98441C41.394 8.90784 41.4456 8.80784 41.4612 8.69847C41.5034 8.42503 41.3127 8.17191 41.0393 8.13128Z" fill="#FF8906"/>
<path d="M69.2732 8.13128L65.306 7.55472L63.5326 3.95941C63.4841 3.86097 63.4044 3.78128 63.306 3.73284C63.0591 3.61097 62.7591 3.71253 62.6357 3.95941L60.8623 7.55472L56.8951 8.13128C56.7857 8.14691 56.6857 8.19847 56.6091 8.27659C56.5166 8.37173 56.4656 8.49972 56.4673 8.63244C56.4691 8.76516 56.5235 8.89176 56.6185 8.98441L59.4888 11.7828L58.8107 15.7344C58.7948 15.8263 58.805 15.9209 58.8401 16.0073C58.8752 16.0937 58.9338 16.1686 59.0092 16.2234C59.0847 16.2783 59.1741 16.3108 59.2671 16.3175C59.3602 16.3241 59.4532 16.3045 59.5357 16.261L63.0841 14.3953L66.6326 16.261C66.7294 16.3125 66.8419 16.3297 66.9498 16.311C67.2216 16.2641 67.4044 16.0063 67.3576 15.7344L66.6794 11.7828L69.5498 8.98441C69.6279 8.90784 69.6794 8.80784 69.6951 8.69847C69.7373 8.42503 69.5466 8.17191 69.2732 8.13128Z" fill="#FF8906"/>
<path d="M97.5066 8.13128L93.5394 7.55472L91.766 3.95941C91.7175 3.86097 91.6378 3.78128 91.5394 3.73284C91.2925 3.61097 90.9925 3.71253 90.8691 3.95941L89.0957 7.55472L85.1285 8.13128C85.0191 8.14691 84.9191 8.19847 84.8425 8.27659C84.75 8.37173 84.699 8.49972 84.7007 8.63244C84.7025 8.76516 84.7569 8.89176 84.8519 8.98441L87.7222 11.7828L87.0441 15.7344C87.0282 15.8263 87.0384 15.9209 87.0735 16.0073C87.1086 16.0937 87.1672 16.1686 87.2426 16.2234C87.3181 16.2783 87.4075 16.3108 87.5005 16.3175C87.5936 16.3241 87.6866 16.3045 87.7691 16.261L91.3175 14.3953L94.866 16.261C94.9628 16.3125 95.0753 16.3297 95.1832 16.311C95.455 16.2641 95.6378 16.0063 95.591 15.7344L94.9128 11.7828L97.7832 8.98441C97.8613 8.90784 97.9128 8.80784 97.9285 8.69847C97.9707 8.42503 97.78 8.17191 97.5066 8.13128Z" fill="#FF8906"/>
<path d="M125.74 8.13128L121.773 7.55472L120 3.95941C119.951 3.86097 119.872 3.78128 119.773 3.73284C119.526 3.61097 119.226 3.71253 119.103 3.95941L117.33 7.55472L113.362 8.13128C113.253 8.14691 113.153 8.19847 113.076 8.27659C112.984 8.37173 112.933 8.49972 112.935 8.63244C112.936 8.76516 112.991 8.89176 113.086 8.98441L115.956 11.7828L115.278 15.7344C115.262 15.8263 115.272 15.9209 115.307 16.0073C115.342 16.0937 115.401 16.1686 115.477 16.2234C115.552 16.2783 115.641 16.3108 115.734 16.3175C115.827 16.3241 115.92 16.3045 116.003 16.261L119.551 14.3953L123.1 16.261C123.197 16.3125 123.309 16.3297 123.417 16.311C123.689 16.2641 123.872 16.0063 123.825 15.7344L123.147 11.7828L126.017 8.98441C126.095 8.90784 126.147 8.80784 126.162 8.69847C126.205 8.42503 126.014 8.17191 125.74 8.13128Z" fill="#FF8906"/>
<path d="M145.536 16.096C144.736 16.096 143.973 15.968 143.248 15.712C142.523 15.4453 141.947 15.0933 141.52 14.656L142.08 13.744C142.432 14.1173 142.912 14.4267 143.52 14.672C144.139 14.9173 144.805 15.04 145.52 15.04C146.469 15.04 147.189 14.832 147.68 14.416C148.181 13.9893 148.432 13.4347 148.432 12.752C148.432 12.272 148.315 11.8613 148.08 11.52C147.856 11.168 147.472 10.896 146.928 10.704C146.384 10.512 145.637 10.416 144.688 10.416H142.304L142.88 4.8H149.008V5.824H143.344L143.936 5.264L143.44 9.968L142.848 9.392H144.944C146.075 9.392 146.981 9.53067 147.664 9.808C148.347 10.0853 148.837 10.4747 149.136 10.976C149.445 11.4667 149.6 12.0427 149.6 12.704C149.6 13.3333 149.451 13.9093 149.152 14.432C148.853 14.944 148.405 15.3493 147.808 15.648C147.211 15.9467 146.453 16.096 145.536 16.096ZM151.926 16.08C151.692 16.08 151.489 15.9947 151.318 15.824C151.158 15.6533 151.078 15.4453 151.078 15.2C151.078 14.944 151.158 14.736 151.318 14.576C151.489 14.416 151.692 14.336 151.926 14.336C152.161 14.336 152.358 14.416 152.518 14.576C152.689 14.736 152.774 14.944 152.774 15.2C152.774 15.4453 152.689 15.6533 152.518 15.824C152.358 15.9947 152.161 16.08 151.926 16.08ZM158.745 16.096C157.881 16.096 157.113 15.872 156.441 15.424C155.769 14.9653 155.241 14.3147 154.857 13.472C154.473 12.6187 154.281 11.5947 154.281 10.4C154.281 9.20533 154.473 8.18667 154.857 7.344C155.241 6.49067 155.769 5.84 156.441 5.392C157.113 4.93333 157.881 4.704 158.745 4.704C159.609 4.704 160.377 4.93333 161.049 5.392C161.721 5.84 162.249 6.49067 162.633 7.344C163.028 8.18667 163.225 9.20533 163.225 10.4C163.225 11.5947 163.028 12.6187 162.633 13.472C162.249 14.3147 161.721 14.9653 161.049 15.424C160.377 15.872 159.609 16.096 158.745 16.096ZM158.745 15.04C159.407 15.04 159.983 14.864 160.473 14.512C160.964 14.1493 161.348 13.6267 161.625 12.944C161.903 12.2507 162.041 11.4027 162.041 10.4C162.041 9.39733 161.903 8.55467 161.625 7.872C161.348 7.17867 160.964 6.656 160.473 6.304C159.983 5.94133 159.407 5.76 158.745 5.76C158.105 5.76 157.535 5.94133 157.033 6.304C156.532 6.656 156.143 7.17867 155.865 7.872C155.588 8.55467 155.449 9.39733 155.449 10.4C155.449 11.4027 155.588 12.2507 155.865 12.944C156.143 13.6267 156.532 14.1493 157.033 14.512C157.535 14.864 158.105 15.04 158.745 15.04Z" fill="white"/>
</svg>
