<svg width="157" height="24" viewBox="0 0 157 24" fill="none" xmlns="http://www.w3.org/2000/svg">
<circle cx="12" cy="12" r="12" fill="#00A700"/>
<g clip-path="url(#clip0_27_101)">
<path fill-rule="evenodd" clip-rule="evenodd" d="M12.0001 18.6207C15.6566 18.6207 18.6208 15.6565 18.6208 12C18.6208 8.34345 15.6566 5.37927 12.0001 5.37927C8.34358 5.37927 5.37939 8.34345 5.37939 12C5.37939 15.6565 8.34358 18.6207 12.0001 18.6207ZM15.1286 10.5768C15.371 10.3344 15.371 9.94139 15.1286 9.699C14.8862 9.45661 14.4933 9.45661 14.2509 9.699L10.9656 12.9842L9.74932 11.768C9.50693 11.5256 9.11393 11.5256 8.87154 11.768C8.62914 12.0104 8.62914 12.4034 8.87154 12.6458L10.5267 14.3009C10.7691 14.5433 11.1621 14.5433 11.4045 14.3009L15.1286 10.5768Z" fill="white"/>
</g>
<path d="M40.878 14.76C41.346 15.336 41.976 15.624 42.768 15.624C43.56 15.624 44.184 15.336 44.64 14.76C45.108 14.172 45.342 13.374 45.342 12.366V5.418H48.15V12.456C48.15 14.28 47.646 15.684 46.638 16.668C45.63 17.64 44.34 18.126 42.768 18.126C41.196 18.126 39.9 17.634 38.88 16.65C37.872 15.666 37.368 14.268 37.368 12.456V5.418H40.176V12.366C40.176 13.374 40.41 14.172 40.878 14.76ZM57.8395 14.994C57.8395 15.942 57.4855 16.704 56.7775 17.28C56.0815 17.856 55.1935 18.144 54.1135 18.144C53.3935 18.144 52.6435 18.018 51.8635 17.766C51.0835 17.502 50.3815 17.118 49.7575 16.614L50.9455 14.922C51.9535 15.702 53.0275 16.092 54.1675 16.092C54.5155 16.092 54.7915 16.026 54.9955 15.894C55.1995 15.75 55.3015 15.564 55.3015 15.336C55.3015 15.108 55.1575 14.898 54.8695 14.706C54.5935 14.514 54.1855 14.334 53.6455 14.166C53.1175 13.998 52.7095 13.854 52.4215 13.734C52.1455 13.614 51.8275 13.44 51.4675 13.212C50.7355 12.756 50.3695 12.084 50.3695 11.196C50.3695 10.296 50.7295 9.564 51.4495 9C52.1695 8.436 53.0995 8.154 54.2395 8.154C55.3795 8.154 56.5195 8.538 57.6595 9.306L56.6515 11.106C55.8115 10.53 54.9715 10.242 54.1315 10.242C53.3035 10.242 52.8895 10.47 52.8895 10.926C52.8895 11.178 53.0215 11.376 53.2855 11.52C53.5495 11.664 53.9875 11.832 54.5995 12.024C55.2115 12.216 55.6435 12.366 55.8955 12.474C56.1595 12.57 56.4715 12.726 56.8315 12.942C57.5035 13.35 57.8395 14.034 57.8395 14.994ZM68.289 16.596C67.197 17.628 65.913 18.144 64.437 18.144C62.973 18.144 61.761 17.694 60.801 16.794C59.841 15.882 59.361 14.664 59.361 13.14C59.361 11.616 59.847 10.404 60.819 9.504C61.803 8.604 62.961 8.154 64.293 8.154C65.625 8.154 66.753 8.556 67.677 9.36C68.613 10.164 69.081 11.268 69.081 12.672V14.112H62.025C62.109 14.64 62.385 15.072 62.853 15.408C63.321 15.744 63.849 15.912 64.437 15.912C65.385 15.912 66.165 15.594 66.777 14.958L68.289 16.596ZM66.345 12.186C66.285 11.61 66.069 11.166 65.697 10.854C65.325 10.542 64.869 10.386 64.329 10.386C63.801 10.386 63.315 10.548 62.871 10.872C62.427 11.196 62.169 11.634 62.097 12.186H66.345ZM76.122 10.692C75.318 10.692 74.718 10.98 74.322 11.556C73.926 12.12 73.728 12.87 73.728 13.806V18H71.028V8.316H73.728V9.594C74.076 9.198 74.508 8.862 75.024 8.586C75.552 8.31 76.086 8.166 76.626 8.154L76.644 10.692H76.122ZM92.0845 5.418V7.884H86.2525V10.602H91.7965V13.068H86.2525V18H83.4445V5.418H92.0845ZM99.29 10.692C98.486 10.692 97.886 10.98 97.49 11.556C97.094 12.12 96.896 12.87 96.896 13.806V18H94.196V8.316H96.896V9.594C97.244 9.198 97.676 8.862 98.192 8.586C98.72 8.31 99.254 8.166 99.794 8.154L99.812 10.692H99.29ZM104.296 18H101.596V8.316H104.296V18ZM101.812 7.092C101.512 6.78 101.362 6.402 101.362 5.958C101.362 5.514 101.512 5.142 101.812 4.842C102.124 4.53 102.502 4.374 102.946 4.374C103.39 4.374 103.762 4.53 104.062 4.842C104.374 5.142 104.53 5.514 104.53 5.958C104.53 6.402 104.374 6.78 104.062 7.092C103.762 7.392 103.39 7.542 102.946 7.542C102.502 7.542 102.124 7.392 101.812 7.092ZM115.24 16.596C114.148 17.628 112.864 18.144 111.388 18.144C109.924 18.144 108.712 17.694 107.752 16.794C106.792 15.882 106.312 14.664 106.312 13.14C106.312 11.616 106.798 10.404 107.77 9.504C108.754 8.604 109.912 8.154 111.244 8.154C112.576 8.154 113.704 8.556 114.628 9.36C115.564 10.164 116.032 11.268 116.032 12.672V14.112H108.976C109.06 14.64 109.336 15.072 109.804 15.408C110.272 15.744 110.8 15.912 111.388 15.912C112.336 15.912 113.116 15.594 113.728 14.958L115.24 16.596ZM113.296 12.186C113.236 11.61 113.02 11.166 112.648 10.854C112.276 10.542 111.82 10.386 111.28 10.386C110.752 10.386 110.266 10.548 109.822 10.872C109.378 11.196 109.12 11.634 109.048 12.186H113.296ZM120.679 12.6V18H117.979V8.316H120.679V9.396C121.495 8.568 122.413 8.154 123.433 8.154C124.453 8.154 125.305 8.514 125.989 9.234C126.685 9.954 127.033 10.914 127.033 12.114V18H124.333V12.528C124.333 11.04 123.787 10.296 122.695 10.296C122.155 10.296 121.681 10.494 121.273 10.89C120.877 11.274 120.679 11.844 120.679 12.6ZM133.345 18.144C132.205 18.144 131.185 17.658 130.285 16.686C129.385 15.714 128.935 14.508 128.935 13.068C128.935 11.628 129.373 10.452 130.249 9.54C131.125 8.616 132.151 8.154 133.327 8.154C134.503 8.154 135.463 8.568 136.207 9.396V4.644H138.907V18H136.207V16.722C135.451 17.67 134.497 18.144 133.345 18.144ZM131.653 13.176C131.653 13.956 131.887 14.598 132.355 15.102C132.823 15.594 133.369 15.84 133.993 15.84C134.617 15.84 135.145 15.594 135.577 15.102C136.021 14.598 136.243 13.956 136.243 13.176C136.243 12.384 136.021 11.73 135.577 11.214C135.145 10.686 134.611 10.422 133.975 10.422C133.339 10.422 132.793 10.686 132.337 11.214C131.881 11.742 131.653 12.396 131.653 13.176ZM144.164 18H141.464V4.644H144.164V18ZM148.393 21.816C147.445 21.816 146.551 21.432 145.711 20.664L146.935 18.666C147.391 19.11 147.859 19.332 148.339 19.332C148.591 19.332 148.807 19.206 148.987 18.954C149.167 18.714 149.257 18.456 149.257 18.18C149.257 17.904 148.009 14.616 145.513 8.316H148.393L150.751 14.346L153.109 8.316H155.989L151.489 19.728C151.225 20.388 150.811 20.898 150.247 21.258C149.695 21.63 149.077 21.816 148.393 21.816Z" fill="#00A700"/>
<defs>
<clipPath id="clip0_27_101">
<rect width="13.2414" height="13.2414" fill="white" transform="translate(5.37939 5.37927)"/>
</clipPath>
</defs>
</svg>
